<svg width="132" height="56" viewBox="0 0 132 56" fill="none" xmlns="http://www.w3.org/2000/svg">
<path d="M26.6299 35.2959C26.6299 38.1624 26.0879 40.8604 25.0039 43.3896C23.9199 45.8949 22.4385 48.0869 20.5596 49.9658C18.7048 51.8206 16.5127 53.29 13.9834 54.374C11.4782 55.458 8.79232 56 5.92578 56C4.19141 56 2.45703 55.7832 0.722656 55.3496V44.2207C1.49349 44.6784 2.32454 45.0277 3.21582 45.2686C4.1071 45.5094 5.01042 45.6299 5.92578 45.6299C7.34701 45.6299 8.68392 45.3649 9.93652 44.835C11.2132 44.2809 12.3213 43.5342 13.2607 42.5947C14.2002 41.6553 14.9349 40.5592 15.4648 39.3066C16.0189 38.054 16.2959 36.7171 16.2959 35.2959V4.18555H26.6299V35.2959ZM44.1182 56H34.1816V1.90918H44.1182V36.0186L58.8242 17.374H70.1699L57.3428 33.4893L70.1699 56H58.8242L50.9834 41.9443L44.1182 51.0498V56ZM85.4105 56V47.934C94.5125 47.934 97.3245 46.01 97.3245 39.498C95.8445 42.236 92.3665 44.16 88.0745 44.16C80.0085 44.16 74.0885 38.462 74.0885 30.618C74.0885 23.218 79.3425 18.038 86.0025 18.038C89.0365 18.038 90.5905 18.63 91.9965 19.74C90.4425 18.186 89.2585 15.078 89.2585 13.228C89.2585 5.532 94.5865 0.573999 102.726 0.573999C110.866 0.573999 116.194 5.458 116.194 13.228C116.194 15.078 115.01 18.26 113.456 19.74C114.862 18.63 116.416 18.038 119.45 18.038C126.11 18.038 131.364 23.144 131.364 30.618C131.364 38.462 125.37 44.16 117.378 44.16C113.234 44.16 109.608 42.236 108.128 39.498C108.128 45.862 110.792 47.934 120.042 47.934V56H85.4105ZM88.8145 52.892H116.638V50.894C106.13 50.894 104.502 46.01 104.502 33.948H106.278C108.424 37.722 112.79 40.238 117.378 40.238C122.928 40.238 127.22 35.946 127.22 30.618C127.22 24.994 123.89 21.442 118.266 21.442C115.454 21.442 113.16 22.182 111.458 24.18L109.534 22.626C111.088 19.814 112.05 16.262 112.05 13.228C112.05 7.9 108.498 4.718 102.726 4.718C96.9545 4.718 93.4025 7.9 93.4025 13.228C93.4025 16.262 94.2905 19.74 95.9185 22.626L93.9945 24.18C92.2185 22.182 89.9985 21.442 87.1865 21.442C81.6365 21.442 78.2325 24.994 78.2325 30.618C78.2325 35.872 82.5245 40.238 88.0745 40.238C92.5885 40.238 97.0285 37.796 99.1745 33.948H100.95C100.95 46.158 99.3225 50.894 88.8145 50.894V52.892Z" fill="black" fill-opacity="0.85"/>
</svg>
